<mxfile host="app.diagrams.net" modified="2023-07-18T19:17:57.354Z" agent="Mozilla/5.0 (Windows NT 10.0; Win64; x64; rv:109.0) Gecko/20100101 Firefox/115.0" version="21.6.2" etag="1726CPtWu1Ib4G-e6fml" type="github">
  <diagram name="Page-1" id="S2DO4Dpq8Ne72N8rx3Cb">
    <mxGraphModel>
      <root>
        <mxCell id="0" />
        <mxCell id="1" parent="0" />
      </root>
    </mxGraphModel>
  </diagram>
</mxfile>
